<?xml version="1.0" encoding="UTF-8"?>
<svg id="Layer_2" data-name="Layer 2" xmlns="http://www.w3.org/2000/svg" xmlns:xlink="http://www.w3.org/1999/xlink" viewBox="0 0 1430.4 254.28">
  <defs>
    <style>
      .cls-1 {
        font-family: MyriadPro-Bold, 'Myriad Pro';
        font-size: 36px;
        font-weight: 700;
      }

      .cls-1, .cls-2 {
        fill: #08152b;
      }

      .cls-3 {
        letter-spacing: .21em;
      }

      .cls-4 {
        fill: url(#linear-gradient-2);
      }

      .cls-5 {
        fill: #fb07c2;
      }

      .cls-6 {
        fill: #6435fb;
      }

      .cls-7 {
        fill: url(#linear-gradient-3);
      }

      .cls-8 {
        letter-spacing: .19em;
      }

      .cls-9 {
        letter-spacing: .21em;
      }

      .cls-10 {
        letter-spacing: .22em;
      }

      .cls-11 {
        fill: #e100fe;
      }

      .cls-12 {
        letter-spacing: .21em;
      }

      .cls-13 {
        letter-spacing: .21em;
      }

      .cls-14 {
        letter-spacing: .22em;
      }

      .cls-15 {
        letter-spacing: .21em;
      }

      .cls-16 {
        letter-spacing: .21em;
      }

      .cls-17 {
        fill: url(#linear-gradient);
      }

      .cls-18 {
        letter-spacing: .14em;
      }

      .cls-19 {
        letter-spacing: .2em;
      }
    </style>
    <linearGradient id="linear-gradient" x1="828.22" y1="87.35" x2="928.51" y2="87.35" gradientUnits="userSpaceOnUse">
      <stop offset="0" stop-color="#6232fc"/>
      <stop offset="1" stop-color="#e501f6"/>
    </linearGradient>
    <linearGradient id="linear-gradient-2" x1="941.08" y1="87.33" x2="1041.3" y2="87.33" xlink:href="#linear-gradient"/>
    <linearGradient id="linear-gradient-3" x1="122.54" y1="59.74" x2="319.24" y2="119.58" xlink:href="#linear-gradient"/>
  </defs>
  <g id="Layer_1-2" data-name="Layer 1">
    <g>
      <g>
        <g>
          <path class="cls-2" d="M1161.55,116.1c1.16-.68,2.64-.19,3.78.35,1.41.66,17.53,12.33,18.56,13.44,3.79,4.06-4.75,11.14-8.05,13.99-43.27,37.42-112.34,9.61-117.45-47.49-6.35-70.89,79.99-108.99,125.91-55.12-2.65,2.4-19.17,19.32-20.57,19.56-2.14.38-5.65-5.75-7.43-7.35-19-17.09-50.52-10.81-62.11,11.74-23.2,45.16,28.02,92.56,65.74,53.69.76-.79,1.32-2.64,1.62-2.82Z"/>
          <g>
            <path class="cls-17" d="M845.38,157.91l30.99-46.99c-38.37,3.76-59.94-37.88-41.41-69.92,19.71-34.1,73.47-31.82,89.13,4.71,12.71,29.65-4.52,52.32-19.29,76.12-7.59,12.24-15.81,24.18-23.92,36.08h-35.5ZM894.02,50.26c-10.35-10.41-29.99-7.68-35.44,6.35-7.53,19.39,9.07,36.81,28.34,29.34,14.1-5.46,17.55-25.17,7.09-35.69Z"/>
            <path class="cls-4" d="M958.38,157.91l31-46.99c-47.71,5.13-64.96-56.52-29.33-83.84,21.68-16.62,53.11-12.71,70.35,8.31,33.13,40.37-18.07,87.9-36.52,122.52h-35.5ZM987.14,44.17c-12.24,1.76-19.27,14.01-17.31,25.79,1.77,10.61,9.56,17.36,20.32,17.67,31.24.88,29.05-48.08-3.02-43.46Z"/>
          </g>
          <path class="cls-2" d="M641.38,17.91v55c16.37-18.68,50.36-17.03,59.76,7.74.92,2.43,3.24,9.65,3.24,11.76v65.5h-27v-57.5c0-1.79-3.86-9.69-5.34-11.16-8.37-8.32-23.82-4.04-28.41,6.42-.45,1.03-2.25,7.12-2.25,7.75v54.5h-27V17.91h27Z"/>
          <path class="cls-2" d="M599.38,17.91v27h-43v113h-30V44.91h-41.5c-.11,0-1.5-1.39-1.5-1.5v-25.5h116Z"/>
          <path class="cls-2" d="M813.38,117.91h-68c3.49,22.09,32.12,26.64,43.52,7.97,3.17,2.07,19.53,11.93,19.52,14.52-.03,5.56-19.69,16.57-25.02,18.02-38.33,10.47-72.31-19.13-64.75-58.75,9.18-48.08,78.95-54.33,92.78-7.32.38,1.29,1.95,6.42,1.95,7.05v18.5ZM786.38,98.91c-2.24-23.44-37.85-23.2-40,0h40Z"/>
          <path class="cls-2" d="M1281.38,157.91h-25v-11c-21.45,26.04-72.09,12.38-60.47-25.97,3.7-12.23,20.74-22.03,32.97-22.03h26.5c2.08-19.1-22.73-21.28-34.51-13.01-1.82,1.27-4.74,6.39-7.37,4.87-.88-3.53-12.16-13.06-12.16-15.36,0-3.33,12.6-10.03,15.77-11.26,16.45-6.36,44.68-5.84,56.67,8.85,2.25,2.76,7.59,13.27,7.59,16.41v68.5ZM1255.32,116.96c-9.9-2.05-31.33-2.34-34.5,9.93-4.6,17.86,31.48,18.56,34.46-1.57.4-2.73.02-5.63.03-8.36Z"/>
          <path class="cls-2" d="M1404.38,31.91v30h21v24h-21v40.5c0,.54,2.32,5.31,2.97,6.03,4.34,4.84,14.54,2,20.03.47-1.11,4.85,4.69,19.86,2.55,23.05-.99,1.47-11.56,3.78-14.01,3.99-14.02,1.23-28.92-1.88-35.41-15.66-.63-1.34-3.13-8.04-3.13-8.87v-49.5h-14v-24h14v-23.5c8.3-3.26,17.98-4.93,27-6.5Z"/>
          <path class="cls-2" d="M1358.38,61.91v26c-9.45-2.83-22.94-2.8-29.43,6.07-.83,1.13-4.57,8.67-4.57,9.43v54.5h-28V63.41c0-.11,1.39-1.5,1.5-1.5h25.5v14c2.71-2.44,3.61-5.31,6.48-8.02,7.53-7.13,18.76-8.49,28.52-5.98Z"/>
        </g>
        <g>
          <text class="cls-1" transform="translate(569.03 229.43)"><tspan class="cls-16" x="0" y="0">DIGI</tspan><tspan class="cls-18" x="100.37" y="0">T</tspan><tspan class="cls-3" x="125.06" y="0">AL P</tspan><tspan class="cls-12" x="225.5" y="0">R</tspan><tspan class="cls-3" x="254.27" y="0">ODU</tspan><tspan class="cls-10" x="352.36" y="0">C</tspan><tspan class="cls-19" x="381.85" y="0">T</tspan><tspan class="cls-16" x="408.81" y="0">S </tspan><tspan class="cls-15" x="450.64" y="0">M</tspan><tspan class="cls-16" x="488.55" y="0">ARK</tspan><tspan class="cls-9" x="578.3" y="0">E</tspan><tspan class="cls-13" x="605.26" y="0">TP</tspan><tspan class="cls-14" x="661.03" y="0">L</tspan><tspan class="cls-8" x="687.2" y="0">A</tspan><tspan class="cls-3" x="717.47" y="0">CE</tspan></text>
          <rect class="cls-6" x="487.99" y="215.37" width="66.39" height="6.98" rx="2.36" ry="2.36"/>
          <rect class="cls-5" x="1359.4" y="215.46" width="64.65" height="6.79" rx="2.36" ry="2.36"/>
        </g>
      </g>
      <g>
        <g>
          <path class="cls-2" d="M9.54,1.12c17.27-.74,37.4-2.06,54.05-.08,3.7.44,7.82,2.84,10.42,5.83.91,1.04,1.56,2.28,1.94,3.6,15.7,53.94,29.86,108.49,44.74,162.72,1.22,4.2,5.19,6.59,9.44,6.9l200.56-.16c3.45-.85,6.34-2.81,7.94-6.06,4.96-10.05,7.3-25.8,11.71-36.71.88-2.18,2.51-4.5,5.02-4.9,3.08-.49,13.09-.42,16.31-.05,2.7.31.34.03,5.63,1.02-10.94,24.61-11.32,68.58-45.87,71.35H127.21c-13.25-1.12-24.98-9.57-28.86-22.47L55.73,26.4c-.43-.89-1.13-.86-1.96-.95-13.51-1.55-30.21,1.56-43.79.03C-2.99,24.03-3.51,3.83,9.54,1.12Z"/>
          <path class="cls-2" d="M147.23,214.65c29.46-3.19,29.47,43.55-1.18,39.35-21.91-3-21.61-36.88,1.18-39.35Z"/>
          <path class="cls-2" d="M295.99,214.65c26.35-3.23,30.35,36.54,5.61,39.44-27.61,3.23-30.5-36.39-5.61-39.44Z"/>
        </g>
        <path class="cls-7" d="M324.35,29.34c15.22,21.24,12.63,46.1-.92,67.5l-42.76,68.66c-1.01,1.03-2.15,1.06-3.48,1.18-6.99.64-20.44.59-27.47,0-3.67-.31-4.33-1.5-3.45-5.25l28.26-45.82c-.06-1.04-4-.93-5.16-1.23-19.28-4.97-34.14-17.9-39.57-37.43-16.08-57.8,59.99-95.85,94.57-47.6ZM270.61,84.23c25.44,11.45,47.88-23.54,24.29-41.48-21.28-16.18-49.7,12.39-32.6,34.35,1.47,1.88,6.47,6.3,8.31,7.13ZM204.89,102.27c-4.98,8.49-10.75,17.5-15.87,25.83-7.69,12.5-15.29,25.08-23.27,37.4-1.04,1.03-2.13,1.06-3.48,1.18-6.23.57-22.07.77-28.06,0-2.74-.35-3.98-2.67-2.72-5.12,7.7-14.57,19.26-28.9,26.48-43.52.48-.97,1.17-1.84,1.07-3.01-39.91-4.41-60.12-50.81-37.23-83.9C146.43-4.47,202.45.98,216.39,43.08c7.77,23.46-.04,39.64-11.5,59.19ZM155.15,84.19c25.99,12.89,48.67-26.51,23.32-42.27-28.81-17.91-52.16,27.96-23.32,42.27Z"/>
        <g>
          <rect class="cls-11" x="386.49" y="28.74" width="13.42" height="13.42" rx="4.96" ry="4.96"/>
          <rect class="cls-11" x="362.57" y="53.82" width="16.33" height="16.33" rx="4.02" ry="4.02"/>
          <rect class="cls-11" x="362.29" y="95.58" width="21.02" height="21.02" rx="4.96" ry="4.96"/>
          <rect class="cls-11" x="395.95" y="75.99" width="14.46" height="14.46" rx="4.35" ry="4.35"/>
          <rect class="cls-11" x="331.78" y="112.46" width="14.46" height="14.46" rx="4.22" ry="4.22"/>
          <rect class="cls-11" x="316.92" y="134.2" width="9.6" height="9.6" rx="3.85" ry="3.85"/>
          <rect class="cls-11" x="302.31" y="145.59" width="8.86" height="8.86" rx="3.38" ry="3.38"/>
          <rect class="cls-11" x="289.87" y="160.13" width="8.86" height="8.86" rx="3.55" ry="3.55"/>
          <rect class="cls-11" x="309.87" y="160.66" width="7.81" height="7.81" rx="3.13" ry="3.13"/>
          <rect class="cls-11" x="324.89" y="159.02" width="7.81" height="7.81" rx="2.77" ry="2.77"/>
          <rect class="cls-11" x="344.65" y="80.07" width="10.49" height="10.49" rx="3.78" ry="3.78"/>
        </g>
      </g>
    </g>
  </g>
</svg>